# xmcd
#
# Track frame offsets: 
#        150
#        18220
#        31221
#        45121
#        63229
#        88215
#        103498
#        125732
#        145300
#        166203
#        182370
#
# Disc length: 2639 seconds
#
# Revision: 0
# Processed by: cddbd v1.5.2PL0 Copyright (c) Steve Scherf et al.
# Submitted via: ExactAudioCopy v0.95a4
#
DISCID=8b0a4d0b
DTITLE=Mike Denovan - All Torn Up
DYEAR=2009
DGENRE=
TTITLE0=By My Side
TTITLE1=Joe
TTITLE2=Pretender
TTITLE3=Night Alone
TTITLE4=Collider Blues
TTITLE5=Jaded Heart
TTITLE6=Poor Girl
TTITLE7=Crying (On Saturday Night)
TTITLE8=Trainwreck
TTITLE9=Lonesome Whistle
TTITLE10=Soul On My Sleeve
EXTD=
EXTT0=
EXTT1=
EXTT2=
EXTT3=
EXTT4=
EXTT5=
EXTT6=
EXTT7=
EXTT8=
EXTT9=
EXTT10=
PLAYORDER=
